<svg width="324" height="327" xmlns="http://www.w3.org/2000/svg" xmlns:xlink="http://www.w3.org/1999/xlink" xml:space="preserve" overflow="hidden"><defs><clipPath id="clip0"><rect x="3119" y="828" width="325" height="131"/></clipPath><clipPath id="clip1"><rect x="3119" y="828" width="325" height="131"/></clipPath></defs><g transform="translate(-3120 -631)"><path d="M3185.5 733C3185.5 679.152 3228.93 635.5 3282.5 635.5 3336.07 635.5 3379.5 679.152 3379.5 733 3379.5 786.848 3336.07 830.5 3282.5 830.5 3228.93 830.5 3185.5 786.848 3185.5 733Z" stroke="#FFFFFF" stroke-width="9.16667" stroke-miterlimit="8" fill="none" fill-rule="evenodd"/><text fill="#FFFFFF" font-family="Bodoni MT,Bodoni MT_MSFontService,sans-serif" font-weight="400" font-size="83" transform="matrix(1 0 0 1 3252.8 759)">O</text><g clip-path="url(#clip0)"><g clip-path="url(#clip1)"><g><path d="M243.75 130C243.75 128.504 242.537 127.292 241.042 127.292L25.5612 127.292C25.5463 127.291 25.5343 127.279 25.5345 127.264 25.5346 127.257 25.5374 127.25 25.5423 127.246L61.4981 91.2897C62.5373 90.2137 62.5075 88.4994 61.4315 87.4602 60.382 86.4464 58.718 86.4464 57.6685 87.4602L17.0435 128.085C15.9863 129.143 15.9863 130.857 17.0435 131.915L57.6685 172.54C58.7445 173.579 60.4589 173.549 61.4981 172.473 62.5118 171.424 62.5118 169.76 61.4981 168.71L25.5423 132.754C25.5318 132.744 25.532 132.726 25.5427 132.716 25.5476 132.711 25.5543 132.708 25.5612 132.708L241.042 132.708C242.537 132.708 243.75 131.496 243.75 130Z" fill="#FFFFFF" transform="matrix(-1.83697e-16 -1 1.24616 -2.28915e-16 3120 958)"/></g></g></g></g></svg>