<svg width="96" height="96" xmlns="http://www.w3.org/2000/svg" xmlns:xlink="http://www.w3.org/1999/xlink" xml:space="preserve" overflow="hidden"><g transform="translate(-379 -186)"><path d="M437.843 256.821 439.267 258.229 447.974 250.26 459.121 256.678 463.775 268.944 466.19 269.668 460.737 255.301 447.703 247.796 437.843 256.821Z" fill="#FFFFFF"/><path d="M414.005 218 416.005 218 416.005 205.384 437.005 205.384 437.005 218 439.005 218 439.005 205.384 442.005 205.384 442.005 192 435.005 192 435.005 196 430.005 196 430.005 192 423.005 192 423.005 196 418.005 196 418.005 192 411.005 192 411.005 205.384 414.005 205.384ZM413.005 203.384 413.005 194 416.005 194 416.005 198 425.005 198 425.005 194 428.005 194 428.005 198 437.005 198 437.005 194 440.005 194 440.005 203.384Z" fill="#FFFFFF"/><path d="M399.005 257.059 401.005 254.454 401.005 233 414.005 233 414.005 249.968 416.005 249.394 416.005 233 419.005 233 419.005 221 413.005 221 413.005 225 411.005 225 411.005 221 404.005 221 404.005 225 402.005 225 402.005 221 396.005 221 396.005 233 399.005 233ZM398.005 231 398.005 223 400.005 223 400.005 227 406.005 227 406.005 223 409.005 223 409.005 227 415.005 227 415.005 223 417.005 223 417.005 231Z" fill="#FFFFFF"/><path d="M422.005 217 422.005 225.308 431.236 225.308 431.236 217C431.273 214.451 429.237 212.354 426.688 212.317 424.139 212.279 422.043 214.315 422.005 216.864 422.004 216.909 422.004 216.955 422.005 217ZM429.236 217 429.236 223.308 424.005 223.308 424.005 217C423.977 215.555 425.125 214.362 426.569 214.333 428.014 214.305 429.208 215.453 429.236 216.898 429.237 216.932 429.237 216.966 429.236 217Z" fill="#FFFFFF"/><path d="M442.005 221 442.005 225 440.005 225 440.005 221 434.005 221 434.005 233 437.005 233 437.005 253.522 439.005 251.691 439.005 233 452.005 233 452.005 246.811 454.005 247.963 454.005 233 457.005 233 457.005 221 451.005 221 451.005 225 449.005 225 449.005 221ZM453.005 227 453.005 223 455.005 223 455.005 231 436.005 231 436.005 223 438.005 223 438.005 227 444.005 227 444.005 223 447.005 223 447.005 227Z" fill="#FFFFFF"/><path d="M451.861 268.502 447.393 263.782 438.346 261.537 428.143 251.445 420.499 254.708 420.115 254.454 420.095 254.483 416.593 252.346 403.523 256.1 394.813 267.444 386.228 273.193 387.342 274.855 396.199 268.922 404.709 257.84 416.301 254.511 419.859 256.683 425.069 260.13 426.173 258.462 422.497 256.03 427.692 253.812 437.33 263.346 446.343 265.582 450.775 270.265 466.502 274.982 467.076 273.066 451.861 268.502Z" fill="#FFFFFF"/><path d="M425.235 267.881 414.772 273.024 404.005 273.024 404.005 275.024 415.237 275.024 425.216 270.119 434.764 275.024 442.005 275.024 442.005 273.024 435.247 273.024 425.235 267.881Z" fill="#FFFFFF"/></g></svg>