<svg width="26" height="25" xmlns="http://www.w3.org/2000/svg" xmlns:xlink="http://www.w3.org/1999/xlink" xml:space="preserve" overflow="hidden"><g transform="translate(-914 -221)"><path d="M19.9875 11.375 21.3687 11.375C21.8969 11.375 22.3438 11.7812 22.3438 12.3094L22.3438 22.6281C22.3438 23.1562 21.8969 23.5625 21.3687 23.5625L14.7063 23.5625" stroke="#FFFFFF" stroke-width="0.666667" fill="none" transform="matrix(1 0 0 1.00883 914.406 221.82)"/><path d="M10.5219 23.5625 3.81875 23.5625C3.29063 23.5625 2.84375 23.1562 2.84375 22.6281L2.84375 12.3094C2.84375 11.7812 3.29063 11.375 3.81875 11.375L4.79375 11.375" stroke="#FFFFFF" stroke-width="0.666667" fill="none" transform="matrix(1 0 0 1.00883 914.406 221.82)"/><path d="M9.70937 23.5625 9.70937 16.7781C9.70937 16.25 10.1562 15.8438 10.6844 15.8438L14.5031 15.8438C15.0312 15.8438 15.4781 16.25 15.4781 16.7781L15.4781 23.5625" stroke="#FFFFFF" stroke-width="0.666667" fill="none" transform="matrix(1 0 0 1.00883 914.406 221.82)"/><path d="M4.18438 11.375 0 11.375C0 10.8469 0 10.4406 0.4875 9.95312L12.5938 0 17.0219 3.81875 17.0219 2.15313C17.0219 1.625 17.4281 1.21875 17.9156 1.21875L20.1906 1.21875C20.6781 1.21875 21.125 1.625 21.125 2.15313L21.125 7.3125 24.7 9.95312C25.1875 10.4406 25.1875 10.8469 25.1875 11.375L20.5969 11.375" stroke="#FFFFFF" stroke-width="0.666667" fill="none" transform="matrix(1 0 0 1.00883 914.406 221.82)"/></g></svg>